<svg xmlns="http://www.w3.org/2000/svg" xmlns:svg="http://www.w3.org/2000/svg" xmlns:xlink="http://www.w3.org/1999/xlink" id="svg249" width="48" height="48" version="1.1" viewBox="0 0 48 48"><defs id="defs3"><linearGradient id="linearGradient3656"><stop id="stop3658" offset="0" stop-color="#fff" stop-opacity="1"/><stop id="stop3660" offset="1" stop-color="#fff" stop-opacity="0"/></linearGradient><linearGradient id="linearGradient6352" x1="-26.754" x2="-24.75" y1="11.566" y2="9.688" gradientUnits="userSpaceOnUse" xlink:href="#linearGradient3656"/><linearGradient id="linearGradient3520"><stop id="stop3522" offset="0" stop-color="#000" stop-opacity=".413"/><stop id="stop3524" offset="1" stop-color="#000" stop-opacity="0"/></linearGradient><linearGradient id="linearGradient6350" x1="-18.589" x2="-28.789" y1="11.053" y2="14.07" gradientTransform="matrix(0.9223058,0,0,0.9185751,-92.447368,1.3256997)" gradientUnits="userSpaceOnUse" xlink:href="#linearGradient3520"/><linearGradient id="linearGradient3671"><stop id="stop3673" offset="0" stop-color="#fff" stop-opacity="1"/><stop id="stop3691" offset=".475" stop-color="#fff" stop-opacity="1"/><stop id="stop3675" offset="1" stop-color="#fff" stop-opacity="0"/></linearGradient><radialGradient id="radialGradient6348" cx="-26.305" cy="10.108" r="7.042" fx="-26.305" fy="10.108" gradientTransform="matrix(0.4073362,-0.2798276,0.7510293,1.0932492,-115.18484,-8.4378699)" gradientUnits="userSpaceOnUse" xlink:href="#linearGradient3671"/><linearGradient id="linearGradient3741"><stop id="stop3743" offset="0" stop-color="#fff" stop-opacity="1"/><stop id="stop3745" offset="1" stop-color="#fff" stop-opacity="0"/></linearGradient><radialGradient id="radialGradient6346" cx="4" cy="5.3" r="17" fx="4" fy="5.3" gradientTransform="matrix(1.8860258,0,0,1.1764706,-3.5441033,-4.2352941)" gradientUnits="userSpaceOnUse" xlink:href="#linearGradient3741"/><linearGradient id="linearGradient3613"><stop id="stop3615" offset="0" stop-color="#888a85" stop-opacity="1"/><stop id="stop3617" offset="1" stop-color="#babdb6" stop-opacity="1"/></linearGradient><linearGradient id="linearGradient6344" x1="-47.5" x2="-62.75" y1="49.021" y2="-22.502" gradientTransform="translate(-90,0)" gradientUnits="userSpaceOnUse" xlink:href="#linearGradient3613"/><linearGradient id="linearGradient3683"><stop id="stop3685" offset="0" stop-color="#f6f6f5" stop-opacity="1"/><stop id="stop3689" offset="1" stop-color="#d3d7cf" stop-opacity="1"/></linearGradient><radialGradient id="radialGradient6342" cx="-30.25" cy="35.357" r="18" fx="-30.25" fy="35.357" gradientTransform="matrix(3.9957492,0,0,1.9350367,0.62141,-31.167422)" gradientUnits="userSpaceOnUse" xlink:href="#linearGradient3683"/><linearGradient id="linearGradient6340" x1="25.058" x2="25.058" y1="47.028" y2="39.999" gradientUnits="userSpaceOnUse" xlink:href="#linearGradient3702"/><radialGradient id="radialGradient6338" cx="4.993" cy="43.5" r="2.5" fx="4.993" fy="43.5" gradientTransform="matrix(2.003784,0,0,1.4,-20.01187,-104.4)" gradientUnits="userSpaceOnUse" xlink:href="#linearGradient3688"/><radialGradient id="radialGradient6336" cx="4.993" cy="43.5" r="2.5" fx="4.993" fy="43.5" gradientTransform="matrix(2.003784,0,0,1.4,27.98813,-17.4)" gradientUnits="userSpaceOnUse" xlink:href="#linearGradient3688"/><linearGradient id="linearGradient6334" x1="25.058" x2="25.058" y1="47.028" y2="39.999" gradientUnits="userSpaceOnUse" xlink:href="#linearGradient3702"/><radialGradient id="radialGradient6332" cx="4.993" cy="43.5" r="2.5" fx="4.993" fy="43.5" gradientTransform="matrix(2.003784,0,0,1.4,-20.01187,-104.4)" gradientUnits="userSpaceOnUse" xlink:href="#linearGradient3688"/><radialGradient id="radialGradient6330" cx="4.993" cy="43.5" r="2.5" fx="4.993" fy="43.5" gradientTransform="matrix(2.003784,0,0,1.4,27.98813,-17.4)" gradientUnits="userSpaceOnUse" xlink:href="#linearGradient3688"/><linearGradient id="linearGradient4928"><stop id="stop4930" offset="0" stop-color="#fce94f" stop-opacity="1"/><stop id="stop4932" offset="1" stop-color="#fce94f" stop-opacity="0"/></linearGradient><linearGradient id="linearGradient3702"><stop id="stop3704" offset="0" stop-color="#000" stop-opacity="0"/><stop id="stop3710" offset=".5" stop-color="#000" stop-opacity="1"/><stop id="stop3706" offset="1" stop-color="#000" stop-opacity="0"/></linearGradient><linearGradient id="linearGradient3688"><stop id="stop3690" offset="0" stop-color="#000" stop-opacity="1"/><stop id="stop3692" offset="1" stop-color="#000" stop-opacity="0"/></linearGradient></defs><metadata id="metadata4"/><g id="layer6"><g id="g6083" display="inline" transform="translate(150,0)"><rect id="rect6085" width="48" height="48" x="-150" y="0" fill="#000" fill-opacity="1" stroke="none" display="inline" opacity="0"/><g id="g6087"><g id="g6089" display="inline" opacity=".656" transform="matrix(1.0464281,0,0,0.8888889,-151.18571,5.7222396)"><g id="g6091" opacity=".4" transform="matrix(1.052632,0,0,1.285713,-1.263158,-13.42854)"><rect id="rect6093" width="5" height="7" x="38" y="40" fill="url(#radialGradient6330)" fill-opacity="1" stroke="none"/><rect id="rect6095" width="5" height="7" x="-10" y="-47" fill="url(#radialGradient6332)" fill-opacity="1" stroke="none" transform="scale(-1,-1)"/><rect id="rect6097" width="28" height="7" x="10" y="40" fill="url(#linearGradient6334)" fill-opacity="1" stroke="none"/></g></g><g id="g6099" display="inline" transform="matrix(0.9548466,0,0,0.5555562,-148.98776,19.888875)"><g id="g6101" opacity=".4" transform="matrix(1.052632,0,0,1.285713,-1.263158,-13.42854)"><rect id="rect6103" width="5" height="7" x="38" y="40" fill="url(#radialGradient6336)" fill-opacity="1" stroke="none"/><rect id="rect6105" width="5" height="7" x="-10" y="-47" fill="url(#radialGradient6338)" fill-opacity="1" stroke="none" transform="scale(-1,-1)"/><rect id="rect6107" width="28" height="7" x="10" y="40" fill="url(#linearGradient6340)" fill-opacity="1" stroke="none"/></g></g><path id="path6109" fill="url(#radialGradient6342)" fill-opacity="1" stroke="url(#linearGradient6344)" stroke-miterlimit="4" stroke-width="1" d="M -141.47614,3.5 C -141.47614,3.5 -124,3.5 -122.5,3.5 C -118.62295,3.5729425 -116,6 -113.5,8.5 C -111,11 -108.89232,13.752625 -108.5,17.5 C -108.5,19 -108.5,42.476142 -108.5,42.476142 C -108.5,43.597359 -109.40264,44.5 -110.52385,44.5 L -141.47614,44.5 C -142.59736,44.5 -143.5,43.597359 -143.5,42.476142 L -143.5,5.523858 C -143.5,4.402641 -142.59736,3.5 -141.47614,3.5 z" display="inline"/><path id="path6111" fill="url(#radialGradient6346)" fill-opacity="1" stroke="none" d="M 8.53125,4 C 7.6730803,4 7,4.6730802 7,5.53125 L 7,42.46875 C 7,43.32692 7.6730802,44 8.53125,44 L 39.46875,44 C 40.326919,44 41,43.326918 41,42.46875 L 41,17.5 C 41,16.10803 40.513021,13.200521 38.65625,11.34375 L 33.65625,6.34375 C 31.799479,4.4869792 28.89197,4 27.5,4 L 8.53125,4 z" display="inline" opacity=".68" transform="translate(-150,0)"/><path id="path6113" fill="url(#radialGradient6348)" fill-opacity="1" stroke="none" d="M -122.5,4 C -123.88889,4 -122.54207,4.4970883 -121.15625,5.125 C -119.77043,5.7529117 -116.18337,8.3400517 -117,12 C -112.67669,11.569417 -110.32087,15.122378 -110,16.28125 C -109.67913,17.440122 -109,18.888889 -109,17.5 C -108.97167,13.694419 -111.84543,11.068299 -113.84375,8.84375 C -115.84207,6.6192012 -118.84621,4.4767615 -122.5,4 z" display="inline"/><path id="path6115" fill="url(#linearGradient6350)" fill-opacity="1" stroke="none" d="M -121.39912,5.0143528 C -120.47682,5.0143528 -118.39068,11.210015 -119.31298,15.343603 C -115.01802,14.915844 -110.4596,15.43178 -110,16.28125 C -110.32087,15.122378 -112.67669,11.569417 -117,12 C -116.13534,8.124761 -120.18657,5.3827023 -121.39912,5.0143528 z" display="inline" opacity=".879"/><path id="path6117" fill="none" stroke="url(#linearGradient6352)" stroke-miterlimit="4" stroke-width="1" d="M -51.46875,4.5 C -52.051916,4.5 -52.5,4.9480842 -52.5,5.53125 L -52.5,42.46875 C -52.5,43.051915 -52.051914,43.5 -51.46875,43.5 L -20.53125,43.5 C -19.948085,43.5 -19.5,43.051914 -19.5,42.46875 L -19.5,17.5 C -19.5,16.220971 -19.980469,13.394531 -21.6875,11.6875 L -26.6875,6.6875 C -28.394531,4.9804687 -31.220971,4.5 -32.5,4.5 L -51.46875,4.5 z" display="inline" transform="translate(-90,0)"/></g></g><g id="g6121" transform="translate(-1e-5,-0.00291)"><rect id="rect6123" width="16.772" height=".938" x="11" y="9.063" fill="#8d8d8d" fill-opacity="1" fill-rule="evenodd" stroke="none" stroke-width="1" display="inline" opacity=".511" overflow="visible" rx=".469" ry=".469" visibility="visible" style="marker:none"/><rect id="rect6127" width="25" height="1.003" x="11" y="13" fill="#8d8d8d" fill-opacity="1" fill-rule="evenodd" stroke="none" stroke-width="1" display="inline" opacity=".511" overflow="visible" rx=".501" ry=".501" visibility="visible" style="marker:none"/><rect id="rect6129" width="21" height="1" x="11" y="15.003" fill="#8d8d8d" fill-opacity="1" fill-rule="evenodd" stroke="none" stroke-width="1" display="inline" opacity=".511" overflow="visible" rx=".5" ry=".5" visibility="visible" style="marker:none"/><rect id="rect6131" width="16.772" height=".938" x="11" y="17.063" fill="#8d8d8d" fill-opacity="1" fill-rule="evenodd" stroke="none" stroke-width="1" display="inline" opacity=".511" overflow="visible" rx=".469" ry=".469" visibility="visible" style="marker:none"/><rect id="rect6133" width="27" height=".938" x="11" y="35.063" fill="#8d8d8d" fill-opacity="1" fill-rule="evenodd" stroke="none" stroke-width="1" display="inline" opacity=".511" overflow="visible" rx=".469" ry=".469" visibility="visible" style="marker:none"/><rect id="rect6135" width="27" height=".938" x="11" y="37.063" fill="#8d8d8d" fill-opacity="1" fill-rule="evenodd" stroke="none" stroke-width="1" display="inline" opacity=".511" overflow="visible" rx=".469" ry=".469" visibility="visible" style="marker:none"/><rect id="rect6137" width="10" height=".938" x="11" y="39.063" fill="#8d8d8d" fill-opacity="1" fill-rule="evenodd" stroke="none" stroke-width="1" display="inline" opacity=".511" overflow="visible" rx=".469" ry=".469" visibility="visible" style="marker:none"/></g><g id="g6139" transform="matrix(0.30622,0,0,1,26.63157,-2.00291)"><rect id="rect6141" width="26.125" height=".938" x="11" y="23.063" fill="#8d8d8d" fill-opacity="1" fill-rule="evenodd" stroke="none" stroke-width="1" display="inline" opacity=".511" overflow="visible" rx="1.531" ry=".469" visibility="visible" style="marker:none"/><rect id="rect6143" width="26.125" height=".938" x="11" y="25.063" fill="#8d8d8d" fill-opacity="1" fill-rule="evenodd" stroke="none" stroke-width="1" display="inline" opacity=".511" overflow="visible" rx="1.531" ry=".469" visibility="visible" style="marker:none"/><rect id="rect6145" width="26.125" height=".938" x="11" y="27.063" fill="#8d8d8d" fill-opacity="1" fill-rule="evenodd" stroke="none" stroke-width="1" display="inline" opacity=".511" overflow="visible" rx="1.531" ry=".469" visibility="visible" style="marker:none"/><rect id="rect6147" width="26.125" height=".938" x="11" y="29.063" fill="#8d8d8d" fill-opacity="1" fill-rule="evenodd" stroke="none" stroke-width="1" display="inline" opacity=".511" overflow="visible" rx="1.531" ry=".469" visibility="visible" style="marker:none"/><rect id="rect6149" width="26.125" height=".938" x="11" y="31.063" fill="#8d8d8d" fill-opacity="1" fill-rule="evenodd" stroke="none" stroke-width="1" display="inline" opacity=".511" overflow="visible" rx="1.531" ry=".469" visibility="visible" style="marker:none"/><rect id="rect6151" width="12.83" height=".938" x="11" y="33.063" fill="#8d8d8d" fill-opacity="1" fill-rule="evenodd" stroke="none" stroke-width="1" display="inline" opacity=".511" overflow="visible" rx="1.531" ry=".469" visibility="visible" style="marker:none"/></g><rect id="rect6823" width="16.772" height=".938" x="11" y="9.06" fill="#8d8d8d" fill-opacity="1" fill-rule="evenodd" stroke="none" stroke-width="1" display="inline" overflow="visible" rx=".469" ry=".469" visibility="visible" style="marker:none"/><path id="path4463" fill="#f91d0a" d="M 15.752563,27.435764 C 16.552385,25.868077 17.46137,24.101793 18.188916,22.328502 L 18.188916,22.328502 L 18.476589,21.62848 C 17.526282,18.012268 16.956442,15.109519 17.465516,13.232569 L 17.465516,13.232569 C 17.602562,12.743226 18.169328,12.446331 18.775271,12.446331 L 18.775271,12.446331 L 19.144513,12.451764 H 19.212284 C 20.041846,12.439039 20.432463,13.494291 20.476786,13.904568 L 20.476786,13.904568 C 20.549991,14.587862 20.233865,15.744272 20.233865,15.744272 L 20.233865,15.744272 C 20.233865,15.277305 20.252167,14.522736 19.957417,13.871612 L 19.957417,13.871612 C 19.61434,13.118187 19.286633,12.66809 18.992812,12.596744 L 18.992812,12.596744 C 18.844473,12.695828 18.700279,12.901002 18.650879,13.295694 L 18.650879,13.295694 C 18.548578,13.849092 18.51791,14.547614 18.51791,14.907705 L 18.51791,14.907705 C 18.51791,16.179928 18.768408,17.859138 19.260683,19.590179 L 19.260683,19.590179 C 19.353547,19.322165 19.43526,19.064661 19.500243,18.823385 L 19.500243,18.823385 C 19.601186,18.443134 20.242945,15.922494 20.242945,15.922494 L 20.242945,15.922494 C 20.242945,15.922494 20.081236,19.277842 19.85533,20.293061 L 19.85533,20.293061 C 19.806932,20.5076 19.753529,20.71978 19.697911,20.936964 L 19.697911,20.936964 C 20.509671,23.205103 21.817709,25.229464 23.378105,26.686415 L 23.378105,26.686415 C 23.993342,27.261402 24.770358,27.72501 25.505768,28.147583 L 25.505768,28.147583 C 27.111774,27.918103 28.590456,27.809724 29.824075,27.82338 L 29.824075,27.82338 C 31.46075,27.844969 32.662126,28.087032 33.14861,28.566224 L 33.14861,28.566224 C 33.386813,28.799136 33.483466,29.080446 33.513491,29.395785 L 33.513491,29.395785 C 33.52064,29.518461 33.460875,29.806705 33.443361,29.879052 L 33.443361,29.879052 C 33.460875,29.791478 33.460875,29.360826 32.147046,28.941471 L 32.147046,28.941471 C 31.112311,28.61069 29.175739,28.620984 26.851981,28.868337 L 26.851981,28.868337 C 29.539763,30.183311 32.15827,30.83665 32.988117,30.444961 L 32.988117,30.444961 C 33.191003,30.346092 33.43707,30.008948 33.43707,30.008948 L 33.43707,30.008948 C 33.43707,30.008948 33.290802,30.673512 33.185785,30.839653 L 33.185785,30.839653 C 33.051742,31.020163 32.788805,31.215686 32.539522,31.2816 L 32.539522,31.2816 C 31.228981,31.631254 27.817587,30.822138 24.843635,29.122839 L 24.843635,29.122839 C 21.520958,29.612183 17.871933,30.516164 14.946951,31.47555 L 14.946951,31.47555 C 12.072583,36.512896 9.9116065,38.826431 8.1536147,37.946326 L 8.1536147,37.946326 L 7.5072805,37.621336 C 7.2445576,37.471066 7.2044522,37.105255 7.2652179,36.80736 L 7.2652179,36.80736 C 7.4701776,35.80458 8.7276018,34.294227 11.253388,32.786019 L 11.253388,32.786019 C 11.525261,32.621522 12.736289,31.981193 12.736289,31.981193 L 12.736289,31.981193 C 12.736289,31.981193 11.839743,32.848929 11.629708,33.019217 L 11.629708,33.019217 C 9.6137105,34.671262 8.1258054,36.749668 8.1629083,37.555423 L 8.1629083,37.555423 L 8.1702002,37.625698 C 9.8827248,37.381633 12.450904,33.895961 15.752563,27.435764 M 16.79888,27.971505 C 16.247411,29.010101 15.708383,29.97306 15.210746,30.857239 L 15.210746,30.857239 C 17.963511,29.703903 20.92631,28.965849 23.746632,28.441546 L 23.746632,28.441546 C 23.367596,28.179824 22.999641,27.902661 22.653419,27.609698 L 22.653419,27.609698 C 21.100315,26.294796 19.916239,24.654333 19.057939,22.928082 L 19.057939,22.928082 C 18.51362,24.394541 17.866357,25.952864 16.79888,27.971505"/></g></svg>